HIERARCHY
ROOT root
{
	OFFSET	0	13.1	24.9
	CHANNELS 6  Xposition Yposition Zposition Xrotation Yrotation Zrotation
	JOINT spine_1
	{
		OFFSET	0	9.99999	0
		CHANNELS 3  Xrotation Yrotation Zrotation
		JOINT spine_2
		{
			OFFSET	0	112	-10
			CHANNELS 3  Xrotation Yrotation Zrotation
			JOINT spine_3
			{
				OFFSET	0	206.5	19.3
				CHANNELS 3  Xrotation Yrotation Zrotation
				JOINT spine_4
				{
					OFFSET	0	110.4	14.6
					CHANNELS 3  Xrotation Yrotation Zrotation
					JOINT neck_1
					{
						OFFSET	0	71.8	-50.3
						CHANNELS 3  Xrotation Yrotation Zrotation
						JOINT neck_2
						{
							OFFSET	0	86.2	-25.8
							CHANNELS 3  Xrotation Yrotation Zrotation
							JOINT head_ee
							{
								OFFSET	0	179.8	-8.7
								CHANNELS 3  Xrotation Yrotation Zrotation
								End Site
								{
									OFFSET	1	0	0
								}
							}
						}
					}
					JOINT left_clavicle
					{
						OFFSET	-43.2	22.4	-70.8
						CHANNELS 3  Xrotation Yrotation Zrotation
						JOINT left_shoulder
						{
							OFFSET	-93.9	-5.79999	48.7
							CHANNELS 3  Xrotation Yrotation Zrotation
							JOINT left_elbow
							{
								OFFSET	-291.4	-30.8	15.2
								CHANNELS 3  Xrotation Yrotation Zrotation
								JOINT left_lowarm_twist
								{
									OFFSET	-110.7	-3.89999	13.6
									CHANNELS 3  Xrotation Yrotation Zrotation
									JOINT left_hand
									{
										OFFSET	-110.7	-3.89999	13.6
										CHANNELS 3  Xrotation Yrotation Zrotation
										JOINT left_ee
										{
											OFFSET	-80.8	-5.10001	12.1
											CHANNELS 3  Xrotation Yrotation Zrotation
											End Site
											{
												OFFSET	1	0	0
											}
										}
									}
								}
							}
						}
					}
					JOINT right_clavicle
					{
						OFFSET	43.2	22.4	-70.8
						CHANNELS 3  Xrotation Yrotation Zrotation
						JOINT right_shoulder
						{
							OFFSET	93.9	-5.79999	48.7
							CHANNELS 3  Xrotation Yrotation Zrotation
							JOINT right_elbow
							{
								OFFSET	291.4	-30.8	15.2
								CHANNELS 3  Xrotation Yrotation Zrotation
								JOINT right_lowarm_twist
								{
									OFFSET	110.7	-3.89999	13.6
									CHANNELS 3  Xrotation Yrotation Zrotation
									JOINT right_hand
									{
										OFFSET	110.7	-3.89999	13.6
										CHANNELS 3  Xrotation Yrotation Zrotation
										JOINT right_ee
										{
											OFFSET	80.8	-5.10001	12.1
											CHANNELS 3  Xrotation Yrotation Zrotation
											End Site
											{
												OFFSET	1	0	0
											}
										}
									}
								}
							}
						}
					}
				}
			}
		}
	}
	JOINT left_hip
	{
		OFFSET	-82.8	-127.5	0.300001
		CHANNELS 3  Xrotation Yrotation Zrotation
		JOINT left_knee
		{
			OFFSET	-28.2	-396.7	2.2
			CHANNELS 3  Xrotation Yrotation Zrotation
			JOINT left_ankle
			{
				OFFSET	-11.7	-411.3	35.4
				CHANNELS 3  Xrotation Yrotation Zrotation
				JOINT left_toes
				{
					OFFSET	0	-60	-88.6
					CHANNELS 3  Xrotation Yrotation Zrotation
					JOINT left_foot_ee
					{
						OFFSET	-22.5	-16.5	-42.2
						CHANNELS 3  Xrotation Yrotation Zrotation
						End Site
						{
							OFFSET	1	0	0
						}
					}
				}
			}
		}
	}
	JOINT right_hip
	{
		OFFSET	82.8	-127.5	0.300001
		CHANNELS 3  Xrotation Yrotation Zrotation
		JOINT right_knee
		{
			OFFSET	28.2	-396.7	2.2
			CHANNELS 3  Xrotation Yrotation Zrotation
			JOINT right_ankle
			{
				OFFSET	11.7	-411.3	35.4
				CHANNELS 3  Xrotation Yrotation Zrotation
				JOINT right_toes
				{
					OFFSET	0	-60	-88.6
					CHANNELS 3  Xrotation Yrotation Zrotation
					JOINT right_foot_ee
					{
						OFFSET	22.5	-16.5	-42.2
						CHANNELS 3  Xrotation Yrotation Zrotation
						End Site
						{
							OFFSET	1	0	0
						}
					}
				}
			}
		}
	}
}
MOTION
Frames: 14
Frame Time: 0.02
2893.98845022 698.968 -1834.42971087 10.7349357425 24.4529915509 -5.19105571641 -5.81647 0.157279 -0.0886916 -5.81648 0.162604 -0.0785038 -5.81674 0.178883 -0.0245718 -5.8167 0.172757 -0.0525147 7.27635 18.7282 7.11883 8.09545 25.2442 8.68093 -0.0 0.0 -0.0 6.76579 13.9619 12.7858 4.47231 -21.4133 58.7384 2.23813 -47.9445 0.995284 -38.5484 -2.79813 3.95447 0.913561 1.2684 6.62856 -0.0 0.0 -0.0 9.45343 15.5251 -18.4575 -19.0037 26.7522 -49.9301 0.82308 22.182 -0.161351 -70.6004 6.62268 -5.30724 1.31255 2.84556 -7.63931 0.0 0.0 0.0 -5.76238 9.71556 5.2813 -3.09797 0.115099 0.461451 35.3743 24.0934 -4.67618 -1.22358 0.0 0.0 -0.0 0.0 -0.0 24.6133 25.4546 -5.94178 -66.5922 2.95226 -9.20965 7.54668 4.83182 1.10931 -16.8247 0.0 0.0 0.0 0.0 0.0 
2891.90138834 698.968 -1830.79962683 10.7981704524 25.1722539023 -5.3417363394 -5.81647 0.157279 -0.0886916 -5.81648 0.162604 -0.0785038 -5.81674 0.178883 -0.0245718 -5.8167 0.172757 -0.0525147 7.27635 18.7282 7.11883 8.09545 25.2442 8.68093 -0.0 0.0 -0.0 6.76579 13.9619 12.7858 4.47231 -21.4133 58.7384 2.23813 -47.9445 0.995284 -38.5484 -2.79813 3.95447 0.913561 1.2684 6.62856 -0.0 0.0 -0.0 9.45343 15.5251 -18.4575 -19.0037 26.7522 -49.9301 0.82308 22.182 -0.161351 -70.6004 6.62268 -5.30724 1.31255 2.84556 -7.63931 0.0 0.0 0.0 -5.76238 9.71556 5.2813 -3.09797 0.115099 0.461451 35.3743 24.0934 -4.67618 -1.22358 0.0 0.0 -0.0 0.0 -0.0 24.6133 25.4546 -5.94178 -66.5922 2.95226 -9.20965 7.54668 4.83182 1.10931 -16.8247 0.0 0.0 0.0 0.0 0.0 
2862.73946735 702.549 -1823.41241424 11.2885906396 27.5090140511 -6.33272935742 -5.75837 0.071097 -0.089266 -5.75836 0.0766331 -0.084561 -5.75848 0.0989053 -0.0569292 -5.75848 0.0886731 -0.071835 6.87834 18.8626 7.48217 7.68807 25.2844 9.1355 -0.0 0.0 -0.0 6.94734 13.9013 13.0962 5.58329 -21.6348 58.3758 2.42181 -50.1795 1.13406 -38.5661 -2.79998 3.95579 0.890787 1.32695 6.49966 -0.0 0.0 -0.0 9.12001 14.766 -17.7589 -20.8677 25.6747 -49.5064 0.761469 20.6669 -0.138844 -70.6766 6.6324 -5.30782 1.32855 2.98368 -7.69075 0.0 0.0 0.0 -6.92863 9.91583 5.61167 -3.74169 0.135871 0.558058 35.4245 23.6835 -4.67042 -1.29328 0.0 0.0 -0.0 0.0 -0.0 26.2447 25.9171 -5.22071 -64.7846 2.73818 -9.03064 7.6772 4.99929 1.12875 -16.9411 0.0 0.0 0.0 0.0 0.0 
2841.37507889 701.562 -1826.56769181 11.7225736762 29.4072657784 -7.66737177208 -5.65418 -0.0956368 -0.348049 -5.65412 -0.0732959 -0.353429 -5.65351 0.0381678 -0.358925 -5.65369 -0.0189963 -0.360449 6.62053 18.875 7.52318 7.42695 25.3602 9.19953 -0.0 0.0 -0.0 7.0803 13.9553 13.3184 6.6245 -21.7378 57.9502 2.54761 -51.5987 1.23168 -38.5056 -2.79366 3.95128 0.864511 1.39728 6.35216 -0.0 0.0 -0.0 8.8756 14.0831 -17.2539 -21.7827 25.0922 -49.5321 0.729867 19.8777 -0.127894 -70.7709 6.64445 -5.30851 1.34376 2.98559 -7.79317 0.0 0.0 0.0 -8.79265 9.76089 7.34395 -4.73076 0.165667 0.706924 35.3129 23.3192 -4.64924 -1.39154 0.0 0.0 -0.0 0.0 -0.0 28.9428 25.2882 -6.73159 -62.2015 2.44234 -8.76342 7.666 5.07277 1.12748 -17.2468 0.0 0.0 0.0 0.0 0.0 
2805.85703958 697.615 -1838.50276097 10.4057534122 30.2387872783 -7.66366084365 -5.46395 -0.174283 -0.53448 -5.46381 -0.13992 -0.544486 -5.46211 0.0312138 -0.561309 -5.46254 -0.0578248 -0.559195 5.28194 18.7483 7.88657 6.03993 25.2888 9.71617 -0.0 0.0 -0.0 7.4107 14.1459 13.8667 8.66824 -22.1402 57.1054 2.94618 -55.5705 1.55262 -38.5114 -2.79426 3.95171 0.790222 1.63724 5.95237 -0.0 0.0 -0.0 8.33092 13.953 -16.0716 -24.2372 23.7326 -48.6856 0.698525 19.0871 -0.117441 -70.9835 6.6716 -5.31 1.36316 3.03227 -7.90551 0.0 0.0 0.0 -9.29936 9.67642 9.19813 -5.24895 0.180249 0.785111 34.9774 22.728 -4.59933 -1.77827 0.0 0.0 -0.0 0.0 -0.0 29.4868 25.2885 -6.59531 -54.9594 1.68097 -7.94719 7.5355 5.34782 1.11004 -18.2721 0.0 0.0 0.0 0.0 0.0 
2784.37509893 699.893 -1843.34607387 9.69882424056 31.3699346781 -6.45163469483 -5.45169 -0.24784 -0.888147 -5.45127 -0.190825 -0.902117 -5.44729 0.0905585 -0.917619 -5.44846 -0.0554926 -0.920405 4.85466 18.7937 7.86704 5.6115 25.5365 9.72646 -0.0 0.0 -0.0 7.48945 14.1349 14.0013 8.85042 -22.1666 56.5916 3.05472 -56.5298 1.64266 -38.578 -2.80122 3.95667 0.751869 1.80376 5.76362 -0.0 0.0 -0.0 8.17031 13.8233 -15.7288 -25.0655 23.2884 -48.6109 0.681975 18.6666 -0.112086 -71.1638 6.69463 -5.31119 1.35824 2.78456 -7.97446 0.0 0.0 0.0 -9.50467 9.61646 9.65275 -5.32826 0.182419 0.797091 34.7066 22.648 -4.56903 -2.03549 0.0 0.0 -0.0 0.0 -0.0 29.7275 25.4417 -5.34012 -49.1225 1.14661 -7.22447 6.85784 5.45429 1.01299 -19.2507 0.0 0.0 0.0 0.0 0.0 
2763.28053568 703.893 -1857.06290807 8.32814467385 30.5406894753 -6.34059153822 -5.37166 -0.300664 -1.05014 -5.37107 -0.233235 -1.06714 -5.36537 0.0984168 -1.08789 -5.36701 -0.0746197 -1.08978 4.27689 18.8935 7.87009 5.03308 25.9124 9.7799 -0.0 0.0 -0.0 7.71026 13.8921 14.3957 9.08922 -22.3517 56.3999 3.2125 -57.8425 1.77527 -38.641 -2.80781 3.96136 0.70288 2.03554 5.53065 -0.0 0.0 -0.0 7.97007 13.8853 -15.2914 -25.8098 22.9679 -48.6227 0.668592 18.325 -0.107841 -71.4207 6.72745 -5.31275 1.34971 2.41793 -8.06759 0.0 0.0 0.0 -9.83549 9.46737 10.2252 -5.44486 0.185578 0.814705 34.3151 22.5563 -4.52561 -2.40285 0.0 0.0 -0.0 0.0 -0.0 30.068 25.4893 -3.78638 -40.7625 0.515987 -6.10468 5.82076 5.66744 0.86353 -20.6864 0.0 0.0 0.0 0.0 0.0 
2749.54525455 700.3 -1867.40270998 7.88265521653 29.4319256222 -6.01416962566 -5.23963 -0.196496 -1.17832 -5.23887 -0.121123 -1.18844 -5.23486 0.239172 -1.17041 -5.23676 0.0513401 -1.19349 3.44598 19.2284 8.09552 4.20943 26.5995 10.1218 -0.0 0.0 -0.0 7.79404 13.6226 14.56 9.35477 -22.6352 55.6765 3.36958 -59.0606 1.90914 -38.8698 -2.83177 3.97831 0.697886 2.29341 5.60195 -0.0 0.0 -0.0 7.81623 13.9269 -14.9561 -26.1221 22.8846 -48.8853 0.657487 18.0405 -0.104375 -71.6282 6.75396 -5.3139 1.35511 2.17126 -8.20562 0.0 0.0 0.0 -9.01048 9.325 10.1097 -5.22282 0.179531 0.781167 32.9783 23.3084 -4.40033 -2.93181 0.0 0.0 -0.0 0.0 -0.0 27.7191 24.683 -2.68131 -28.3992 -0.102042 -4.31262 3.58317 5.97588 0.536006 -22.8742 0.0 0.0 0.0 0.0 0.0 
2750.50010515 700.3 -1869.45014375 7.86154309749 29.1597843189 -5.97102385948 -5.23963 -0.196496 -1.17832 -5.23887 -0.121123 -1.18844 -5.23486 0.239172 -1.17041 -5.23676 0.0513401 -1.19349 3.44598 19.2284 8.09552 4.20943 26.5995 10.1218 -0.0 0.0 -0.0 7.79404 13.6226 14.56 9.35477 -22.6352 55.6765 3.36958 -59.0606 1.90914 -38.8698 -2.83177 3.97831 0.697886 2.29341 5.60195 -0.0 0.0 -0.0 7.81623 13.9269 -14.9561 -26.1221 22.8846 -48.8853 0.657487 18.0405 -0.104375 -71.6282 6.75396 -5.3139 1.35511 2.17126 -8.20562 0.0 0.0 0.0 -9.01048 9.325 10.1097 -5.22282 0.179531 0.781167 32.9783 23.3084 -4.40033 -2.93181 0.0 0.0 -0.0 0.0 -0.0 27.7191 24.683 -2.68131 -28.3992 -0.102042 -4.31262 3.58317 5.97588 0.536006 -22.8742 0.0 0.0 0.0 0.0 0.0 
2711.91515491 690.426 -1901.10557903 5.48571757653 29.1208834283 -3.92777445597 -4.61711 -0.141341 -1.59913 -4.61568 -0.0393116 -1.60488 -4.61229 0.424839 -1.54814 -4.61559 0.17504 -1.59579 0.0654709 19.67 8.81528 0.736377 27.9854 11.3522 -0.0 0.0 -0.0 8.33597 13.0068 15.5502 10.931 -25.0323 55.7262 3.79017 -61.943 2.27533 -40.4605 -3.00027 4.09354 0.587254 3.68305 5.42855 -0.0 0.0 -0.0 7.46556 13.9807 -14.1954 -26.9922 22.7725 -49.0712 0.628608 17.2964 -0.0956097 -72.3854 6.85073 -5.31729 1.39959 1.64924 -8.72122 0.0 0.0 0.0 -8.01164 7.85268 12.7435 -5.86937 0.196777 0.878889 26.9746 24.5017 -3.73912 -3.45585 0.0 0.0 -0.0 0.0 -0.0 25.652 23.9632 -2.42813 -3.17254 -0.117561 -0.472629 -3.87639 5.65542 -0.590135 -29.625 0.0 0.0 0.0 0.0 0.0 
2714.09490865 690.426 -1905.42839036 5.45767257133 28.589546004 -3.86966251593 -4.61711 -0.141341 -1.59913 -4.61568 -0.0393116 -1.60488 -4.61229 0.424839 -1.54814 -4.61559 0.17504 -1.59579 0.0654709 19.67 8.81528 0.736377 27.9854 11.3522 -0.0 0.0 -0.0 8.33597 13.0068 15.5502 10.931 -25.0323 55.7262 3.79017 -61.943 2.27533 -40.4605 -3.00027 4.09354 0.587254 3.68305 5.42855 -0.0 0.0 -0.0 7.46556 13.9807 -14.1954 -26.9922 22.7725 -49.0712 0.628608 17.2964 -0.0956097 -72.3854 6.85073 -5.31729 1.39959 1.64924 -8.72122 0.0 0.0 0.0 -8.01164 7.85268 12.7435 -5.86937 0.196777 0.878889 26.9746 24.5017 -3.73912 -3.45585 0.0 0.0 -0.0 0.0 -0.0 25.652 23.9632 -2.42813 -3.17254 -0.117561 -0.472629 -3.87639 5.65542 -0.590135 -29.625 0.0 0.0 0.0 0.0 0.0 
2699.09110423 679.86 -1921.33366835 4.8426515625 28.7564817274 -3.88611129816 -4.57131 -0.188547 -1.66506 -4.56977 -0.0822283 -1.67368 -4.56482 0.402214 -1.62672 -4.56848 0.140294 -1.66981 -1.54529 19.5455 9.0559 -0.961708 28.1307 11.8461 -0.0 0.0 -0.0 8.46708 12.8835 15.7908 11.2085 -26.1634 55.8497 3.84655 -62.2922 2.32517 -41.2091 -3.08066 4.14614 0.53904 4.09425 5.27518 -0.0 0.0 -0.0 7.22606 13.9685 -13.6796 -27.5053 22.7914 -48.2902 0.634973 17.4609 -0.097511 -72.6072 6.87908 -5.31803 1.42954 1.63177 -8.93169 0.0 0.0 0.0 -8.64904 6.68653 13.0686 -5.47845 0.186481 0.81978 23.5282 24.5644 -3.31578 -3.24651 0.0 0.0 -0.0 0.0 -0.0 26.5119 24.6109 -1.92335 0.0182747 0.000752995 0.00270332 -7.28845 4.65296 -1.11205 -32.1114 0.0 0.0 0.0 0.0 0.0 
2583.67880952 671.939 -2004.04765996 7.46175871537 35.1162167531 -6.39345258872 -5.06336 -0.325379 -2.25682 -5.06054 -0.18115 -2.27294 -5.04813 0.498535 -2.225 -5.05501 0.140976 -2.27578 -4.97829 19.0728 10.3424 -4.57735 27.4355 13.7003 -0.0 0.0 -0.0 9.02773 13.4836 16.716 5.91971 -28.8401 59.1659 3.16289 -57.4398 1.73337 -47.8999 -3.82773 4.56858 -0.36734 8.16423 1.01679 -0.0 0.0 -0.0 8.49728 13.4864 -16.4549 -29.8532 23.0156 -45.2705 0.6552 17.9818 -0.103668 -72.8637 6.91186 -5.31876 2.04506 4.94957 -11.7679 0.0 0.0 0.0 -9.31039 2.41402 11.0993 -29.6719 0.0564924 4.50263 23.2816 23.4598 -3.26522 -0.193466 0.0 0.0 -0.0 0.0 -0.0 26.6651 25.0736 -3.91818 -9.14386 -0.267119 -1.37639 -16.352 -3.92069 -2.46232 -32.851 0.0 0.0 0.0 0.0 0.0 
2590.09571867 671.939 -2015.17487565 7.36566344222 34.044941416 -6.22414849694 -5.06336 -0.325379 -2.25682 -5.06054 -0.18115 -2.27294 -5.04813 0.498535 -2.225 -5.05501 0.140976 -2.27578 -4.97829 19.0728 10.3424 -4.57735 27.4355 13.7003 -0.0 0.0 -0.0 9.02773 13.4836 16.716 5.91971 -28.8401 59.1659 3.16289 -57.4398 1.73337 -47.8999 -3.82773 4.56858 -0.36734 8.16423 1.01679 -0.0 0.0 -0.0 8.49728 13.4864 -16.4549 -29.8532 23.0156 -45.2705 0.6552 17.9818 -0.103668 -72.8637 6.91186 -5.31876 2.04506 4.94957 -11.7679 0.0 0.0 0.0 -9.31039 2.41402 11.0993 -29.6719 0.0564924 4.50263 23.2816 23.4598 -3.26522 -0.193466 0.0 0.0 -0.0 0.0 -0.0 26.6651 25.0736 -3.91818 -9.14386 -0.267119 -1.37639 -16.352 -3.92069 -2.46232 -32.851 0.0 0.0 0.0 0.0 0.0 
